<?xml version="1.0" standalone="no"?>
<!DOCTYPE svg PUBLIC "-//W3C//DTD SVG 20010904//EN"
 "http://www.w3.org/TR/2001/REC-SVG-20010904/DTD/svg10.dtd">
<svg version="1.0" xmlns="http://www.w3.org/2000/svg"
 width="244.000000pt" height="244.000000pt" viewBox="0 0 244.000000 244.000000"
 preserveAspectRatio="xMidYMid meet">
<metadata>
Created by potrace 1.11, written by Peter Selinger 2001-2013
</metadata>
<g transform="translate(0.000000,244.000000) scale(0.100000,-0.100000)"
fill="#000000" stroke="none">
<path d="M48 1977 c2 -56 9 -103 13 -105 5 -2 9 -50 9 -107 0 -108 4 -119 45
-120 20 0 20 -7 21 -422 1 -379 3 -425 17 -441 16 -18 51 -19 735 -18 l717 1
3 58 c1 31 -1 58 -5 58 -4 1 -295 2 -645 3 -507 1 -640 4 -650 14 -10 10 -13
93 -13 380 l0 367 250 2 c138 0 253 2 256 2 4 1 5 15 4 31 -2 28 -1 30 34 30
27 0 43 -7 59 -25 16 -18 32 -25 58 -25 28 0 35 -3 32 -17 -2 -12 -16 -20 -42
-24 -44 -7 -66 -30 -66 -67 0 -24 1 -25 20 -7 37 33 78 -9 44 -46 -18 -20 -18
-21 14 -17 35 3 55 28 67 81 8 38 23 34 74 -18 24 -25 47 -45 52 -45 4 0 -9
-42 -30 -92 -49 -119 -53 -131 -57 -143 -2 -5 -19 -48 -38 -95 -32 -77 -34
-86 -18 -92 9 -4 22 -7 28 -7 10 -1 91 187 86 202 -1 4 3 7 8 7 6 0 10 6 10
14 0 7 8 31 17 52 9 22 16 42 15 47 -1 4 3 7 10 7 6 0 8 3 5 7 -4 3 0 17 8 30
9 13 13 23 10 23 -3 0 2 14 10 31 18 33 14 59 -8 59 -7 0 -35 22 -62 50 -54
55 -53 70 6 77 18 2 40 10 49 18 14 13 69 15 360 15 306 0 345 -2 362 -16 16
-16 18 -36 18 -231 l0 -214 77 3 78 3 -1 399 c0 380 -1 399 -19 412 -16 12
-181 14 -1025 14 l-1007 -1 5 -102z m322 -32 c0 -2 -13 -11 -30 -20 -26 -13
-30 -13 -30 -1 0 13 9 17 53 25 4 0 7 -1 7 -4z m167 -4 c7 0 10 -8 7 -16 -4
-10 -22 -14 -65 -13 -32 1 -59 5 -59 8 0 18 56 28 117 21z m128 -29 c13 -30
12 -33 -5 -45 -11 -6 -20 -17 -20 -24 0 -15 21 -17 38 -3 7 5 6 3 -2 -6 -9
-11 -31 -16 -67 -16 -83 0 -80 -1 -67 27 6 14 16 25 22 24 29 -3 43 2 43 17 0
9 -8 19 -18 21 -10 3 -15 11 -12 23 3 13 14 17 40 16 29 -1 37 -6 48 -34z
m139 23 c3 -9 0 -15 -9 -15 -8 0 -15 7 -15 15 0 8 4 15 9 15 5 0 11 -7 15 -15z
m86 5 c0 -5 -4 -10 -9 -10 -6 0 -13 5 -16 10 -3 6 1 10 9 10 9 0 16 -4 16 -10z
m80 -20 c0 -29 2 -30 41 -30 38 0 41 2 37 24 -3 14 0 27 6 29 17 7 56 -11 57
-25 1 -7 3 -23 4 -36 1 -13 -5 -32 -15 -44 -15 -19 -27 -21 -113 -20 -110 0
-127 4 -145 32 -16 26 -8 40 22 40 26 0 46 17 46 40 0 10 10 17 30 18 27 2 30
0 30 -28z m652 12 c20 -16 18 -90 -3 -103 -14 -9 -29 -11 -99 -11 -57 0 -57 0
-74 18 -22 21 -20 70 3 93 16 16 32 19 89 17 38 0 76 -7 84 -14z m300 0 c20
-20 20 -77 -1 -96 -23 -21 -135 -25 -169 -7 -30 16 -31 83 -1 104 25 18 153
17 171 -1z m-1492 -87 c40 -21 53 -19 45 5 -5 16 -2 20 18 18 18 -2 23 -7 19
-20 -7 -27 -29 -34 -109 -32 -73 1 -103 13 -103 41 0 18 86 10 130 -12z m310
15 c0 -5 -10 -10 -22 -9 -22 0 -22 1 -3 9 11 5 21 9 23 9 1 1 2 -3 2 -9z m430
-320 c0 -21 -24 -28 -35 -10 -8 14 3 30 21 30 8 0 14 -9 14 -20z"/>
<path d="M880 1414 c-89 -45 -220 -104 -231 -104 -5 0 -9 -12 -9 -26 0 -27 35
-46 238 -132 l72 -31 0 35 c0 31 -4 36 -42 53 -24 10 -63 28 -88 39 -25 11
-52 22 -60 24 -8 3 33 28 92 56 l107 50 -9 30 c-4 17 -6 33 -2 36 8 8 4 7 -68
-30z"/>
<path d="M1287 1432 c-2 -4 -4 -19 -5 -33 -1 -24 7 -30 100 -72 l102 -46 -30
-13 c-16 -7 -32 -16 -35 -21 -3 -5 -9 -8 -13 -7 -3 0 -27 -8 -52 -20 -26 -11
-50 -20 -55 -20 -11 0 -23 -46 -16 -64 5 -13 12 -12 44 3 21 10 88 40 150 67
115 50 136 70 106 99 -8 8 -26 18 -41 22 -15 3 -30 10 -33 15 -3 5 -12 11 -20
12 -16 3 -43 14 -114 47 -82 38 -84 38 -88 31z"/>
<path d="M1881 1101 c-10 -7 -4 -18 28 -52 22 -24 41 -47 41 -51 0 -15 -81
-86 -95 -84 -9 1 -29 17 -46 35 -35 39 -62 36 -54 -6 11 -63 14 -73 29 -96 14
-21 51 -45 81 -53 37 -9 62 -10 76 -3 11 6 22 2 34 -11 18 -20 17 -21 -4 -44
-17 -18 -36 -25 -77 -28 -60 -5 -101 -29 -121 -69 -15 -31 -23 -98 -13 -104 5
-3 24 11 44 30 20 19 40 35 45 35 10 0 81 -71 81 -81 0 -4 -17 -24 -37 -44
-42 -42 -34 -56 27 -45 79 14 119 63 116 137 -2 35 3 48 26 70 l28 27 99 -97
c60 -59 106 -97 119 -97 27 0 77 51 79 80 1 16 -24 49 -93 118 -51 53 -94 99
-94 102 0 4 10 16 23 28 15 14 34 21 63 20 80 -1 132 44 141 121 5 43 3 51
-10 51 -9 0 -21 -8 -26 -18 -5 -10 -21 -24 -35 -31 -24 -13 -28 -12 -61 23
-19 21 -35 41 -35 46 0 4 14 22 30 40 47 51 40 60 -36 46 -63 -12 -108 -70
-106 -138 1 -26 -5 -45 -22 -65 -23 -26 -26 -27 -41 -12 -11 11 -17 35 -18 70
-3 80 -46 135 -115 144 -15 2 -34 6 -42 9 -8 3 -21 2 -29 -3z m463 -533 c12
-34 -7 -60 -42 -56 -34 4 -49 30 -35 61 16 35 64 32 77 -5z"/>
</g>
</svg>
